<svg width="1080" height="1080" viewBox="0 0 1080 1080" fill="none" xmlns="http://www.w3.org/2000/svg">
  <defs>
    <linearGradient id="bg" x1="0" y1="0" x2="1080" y2="1080" gradientUnits="userSpaceOnUse">
      <stop offset="0" stop-color="#1B1033"/>
      <stop offset="0.55" stop-color="#120F24"/>
      <stop offset="1" stop-color="#170B1E"/>
    </linearGradient>
    <radialGradient id="glow1" cx="0" cy="0" r="1" gradientUnits="userSpaceOnUse" gradientTransform="translate(220 220) rotate(90) scale(520)">
      <stop stop-color="#8200FF" stop-opacity="0.38"/>
      <stop offset="1" stop-color="#8200FF" stop-opacity="0"/>
    </radialGradient>
    <radialGradient id="glow2" cx="0" cy="0" r="1" gradientUnits="userSpaceOnUse" gradientTransform="translate(880 900) rotate(90) scale(420)">
      <stop stop-color="#FF5C23" stop-opacity="0.24"/>
      <stop offset="1" stop-color="#FF5C23" stop-opacity="0"/>
    </radialGradient>
  </defs>
  <rect width="1080" height="1080" fill="url(#bg)"/>
  <rect width="1080" height="1080" fill="url(#glow1)"/>
  <rect width="1080" height="1080" fill="url(#glow2)"/>

  <!-- large decorative curve, corner to corner -->
  <path d="M 90 940 C 90 940, 340 940, 460 820 C 580 700, 640 720, 760 590 C 860 480, 920 490, 990 380"
        stroke="#B87CFF" stroke-opacity="0.14" stroke-width="34" stroke-linecap="round" fill="none"/>

  <!-- logo mark, large + centered -->
  <g transform="translate(420,392)">
    <rect width="140" height="140" rx="36" fill="#FFFFFF" fill-opacity="0.07"/>
    <path d="M30.8 100.8 C 30.8 100.8, 56 100.8, 65.8 79.8 C 75.6 58.8, 81.2 61.6, 91 44.8"
          stroke="#B87CFF" stroke-width="19.6" stroke-linecap="round" fill="none"/>
    <circle cx="95.2" cy="37.8" r="14.7" fill="#FF5C23"/>
  </g>

  <text x="540" y="612" text-anchor="middle" font-family="'Bricolage Grotesque', sans-serif" font-weight="800" font-size="72" letter-spacing="-2.4" fill="#FFFFFF">Probable</text>
  <text x="540" y="662" text-anchor="middle" font-family="'Instrument Sans', sans-serif" font-weight="500" font-size="24" fill="#B3A8D9">Financial infrastructure for prediction markets</text>
</svg>
